<mxfile host="app.diagrams.net" modified="2023-11-23T02:45:01.225Z" agent="Mozilla/5.0 (Windows NT 10.0; Win64; x64) AppleWebKit/537.36 (KHTML, like Gecko) Chrome/119.0.6045.9 Safari/537.36" version="22.1.3" etag="WUWbAh6kkIa26Kn3wZZb" type="github">
  <diagram name="第 1 页" id="qyobUswQIrTLL8eKIHwy">
    <mxGraphModel>
      <root>
        <mxCell id="0" />
        <mxCell id="1" parent="0" />
      </root>
    </mxGraphModel>
  </diagram>
</mxfile>
